<svg width="75" height="73" viewBox="0 0 75 73" fill="none" xmlns="http://www.w3.org/2000/svg">
<path id="Vector" d="M50.2255 0.0586473C42.0263 0.516254 37.396 1.49516 26.9607 5.65136C16.5254 9.80756 8.82152 13.2443 3.23825 22.8824C-2.04545 32.0015 -0.436753 42.1419 4.98612 53.4193C8.52432 60.7646 13.2065 65.8479 20.9882 68.4708C29.3784 71.3014 35.0938 70.3579 43.2222 68.1312C47.0388 67.0933 50.926 64.9609 54.6647 68.5605C56.08 69.9097 58.3138 70.9712 60.6726 71.8416C65.4822 73.613 75.0801 71.233 74.6131 66.1451C74.5905 65.87 74.5203 65.6011 74.4055 65.3501C74.3812 65.2728 74.3411 65.2014 74.2877 65.1403C74.2344 65.0792 74.169 65.0298 74.0957 64.9952C74.0223 64.9607 73.9426 64.9417 73.8616 64.9394C73.7805 64.9372 73.6999 64.9517 73.6247 64.9822C70.2257 66.0814 66.4092 67.4188 64.784 64.2958C63.4206 61.6775 64.0598 56.7287 65.6426 54.1907C67.7301 50.8318 70.1998 46.3194 71.6717 42.6774C73.9809 36.9667 75.3207 29.9092 74.9339 23.807C74.6438 19.1909 70.8697 11.6828 66.4941 6.25756C62.1185 0.832329 56.7169 -0.292813 50.2255 0.0586473Z" fill="#721445"/>
</svg>
