<svg width="60" height="58" viewBox="0 0 60 58" fill="none" xmlns="http://www.w3.org/2000/svg">
<g id="Group 1948755494">
<path id="Vector" d="M57.2175 4.72242L55.1566 2.34826L49.9561 0L35.3437 14.3486L56.9749 21.7043L57.2175 4.72242Z" fill="#FB9948"/>
<path id="Vector_2" d="M56.9758 21.7036L35.3421 14.3479L30.8058 16.112L59.3759 31.0141L60 29.3536L56.9758 21.7036Z" fill="#F88026"/>
<path id="Vector_3" d="M59.376 31.0155L30.806 16.1134L23.5469 25.4028L49.4907 47.9361L59.376 31.0155Z" fill="#FB9948"/>
<path id="Vector_4" d="M23.5459 25.4023L49.4898 47.9356L44.1879 51.6641L21.2141 28.6479L23.5459 25.4023Z" fill="#F88026"/>
<path id="Vector_5" d="M44.1907 51.6642L21.2169 28.648L14.9942 34.5858L32.5084 57.7857L44.1907 51.6642Z" fill="#FB9948"/>
<path id="Vector_6" d="M14.9924 34.5862L32.5066 57.7861L24.8589 57.3786L12.3498 38.5125L14.9924 34.5862Z" fill="#F88026"/>
<path id="Vector_7" d="M12.3513 38.5121L1.03398 45.8019L0 48.0959L1.34959 50.0509L9.87821 54.4129L24.8604 57.3783L12.3513 38.5121Z" fill="#FB9948"/>
</g>
</svg>
