<svg width="34" height="42" viewBox="0 0 34 42" fill="none" xmlns="http://www.w3.org/2000/svg">
<path id="Vector" d="M31.7948 39.1254C32.15 38.814 27.2541 18.5595 28.5218 13.2017C29.7896 7.84396 30.3559 7.28029 30.3559 7.28029C30.3559 7.28029 33.7362 10.1801 33.8186 6.61166C33.9011 3.0432 32.602 -1.06657 31.0479 0.252292C29.4938 1.57116 25.4395 6.4928 23.3908 8.16963C21.3421 9.84645 22.0641 10.0148 17.9409 10.6476C13.8176 11.2804 12.4297 14.1135 11.4669 14.5257C10.5041 14.9379 5.4842 12.4073 3.14792 14.5274C0.811636 16.6475 -1.62305 21.2143 1.43252 21.844C4.48809 22.4737 6.15785 20.3185 8.45747 19.9821C10.7571 19.6457 23.3423 31.0105 25.9078 36.504L28.4768 42L31.7948 39.1254Z" fill="#FFAD00"/>
</svg>
