<svg width="110" height="158" viewBox="0 0 110 158" fill="none" xmlns="http://www.w3.org/2000/svg">
<g id="Group 2131327925">
<path id="Vector" d="M47.4319 118.874C47.4319 118.874 51.6759 161.964 42.0084 157.246L32.3634 152.524L40.3497 115.019C40.3497 115.019 27.3512 158.331 23.4914 155.629C19.6317 152.927 15.0081 143.808 15.0081 143.808L33.5385 114.35C33.5385 114.35 14.2533 143.998 10.0093 135.932C5.76543 127.866 29.1818 104.947 29.1818 104.947L47.4319 118.874Z" fill="#079271"/>
<path id="Vector_2" d="M57.18 132.484C57.18 132.484 7.70835 133.907 1.05547 91.9736C-5.59741 50.0401 19.8571 18.2194 58.9066 23.7141C58.9066 23.7141 69.609 25.4493 78.5804 19.3762C87.5518 13.303 98.2588 -3.05815e-05 98.2588 -3.05815e-05L97.6802 9.83719L90.8873 27.7629L105.215 52.0599C105.215 52.0599 132.4 122.366 57.18 132.484Z" fill="#721445"/>
<path id="Vector_3" d="M37.2506 103.627C37.2506 103.627 46.6966 125.57 68.6891 111.164C68.6891 111.16 61.5119 95.4801 37.2506 103.627Z" fill="white"/>
<path id="Vector_4" d="M3.32479 97.9835C3.32479 97.9835 17.3358 123.437 35.5769 103.017C35.5769 103.026 27.6132 90.5141 3.32479 97.9835Z" fill="white"/>
<path id="Vector_5" d="M38.2609 106.999C37.9005 110.783 41.4417 114.215 46.1704 114.665C50.8992 115.115 55.0247 112.413 55.3851 108.629C55.7455 104.846 52.2043 101.413 47.4756 100.963C42.7469 100.513 38.6213 103.215 38.2609 106.999Z" fill="#2E2328"/>
<path id="Vector_6" d="M6.20956 101.293C5.84915 105.077 9.39039 108.509 14.1191 108.959C18.8478 109.41 22.9733 106.707 23.3338 102.924C23.6942 99.1399 20.153 95.7076 15.4242 95.2574C10.6955 94.8072 6.56996 97.5094 6.20956 101.293Z" fill="#2E2328"/>
</g>
</svg>
