<svg width="47" height="53" viewBox="0 0 47 53" fill="none" xmlns="http://www.w3.org/2000/svg">
<path id="Vector" d="M43.9868 50.9983C48.0836 49.1234 46.7825 44.8731 46.511 42.3323C46.2394 39.7915 38.3267 2.99284 32.6194 0.421373C30.8697 -0.364943 29.5969 -0.065057 28.369 1.44146C25.8779 4.52297 40.2346 47.4988 34.4116 35.3829C33.4671 33.4136 25.9109 8.08383 23.1931 5.84058C22.0124 4.86772 20.2509 3.28328 20.5956 7.57614C21.167 14.8136 33.2286 40.252 31.4104 39.6239C29.5922 38.9957 20.0195 11.9162 4.64259 4.52297C0.1868 2.37654 -1.05997 5.03302 0.895195 8.60096C2.85036 12.1689 29.7764 40.2756 28.1306 42.3889C27.2876 43.4704 14.409 28.3887 11.8163 27.9094C9.70288 27.5174 7.75008 29.7418 8.03816 31.815C8.39472 34.3298 31.2923 52.9723 31.2923 52.9723C33.8213 53.0951 39.8922 52.8732 43.9868 50.9983Z" fill="#2DBD64"/>
</svg>
