<svg width="122" height="130" viewBox="0 0 122 130" fill="none" xmlns="http://www.w3.org/2000/svg">
<g id="Group 2131327926">
<path id="Vector" d="M12.6502 52.7128C12.6502 52.7128 8.90146 24.1516 37.2664 12.0983C65.6314 0.0449337 67.0178 4.135e-06 67.0178 4.135e-06C67.0178 4.135e-06 44.4089 48.3457 28.4191 51.5042C12.4293 54.6627 12.6502 52.7128 12.6502 52.7128Z" fill="#079271"/>
<path id="Vector_2" d="M14.5378 55.0853C14.5378 55.0853 4.01721 44.6782 9.99392 25.2739C14.3292 11.1858 23.7092 8.48401 23.7092 8.48401C23.7092 8.48401 29.3188 41.5085 22.2158 48.8463C15.1128 56.1841 14.5378 55.0853 14.5378 55.0853Z" fill="#079271"/>
<path id="Vector_3" d="M13.9551 50.272C24.3506 35.4478 39.8159 10.1887 78.5388 17.5686C117.262 24.9485 151.422 98.604 82.0395 125.455C23.4928 148.131 -3.83677 75.6429 13.9551 50.272Z" fill="#F98026"/>
<path id="Vector_4" d="M84.7739 109.673C84.7739 109.673 78.985 119.058 85.0914 116.717C91.1978 114.376 88.8901 110.219 84.7739 109.673Z" fill="#9F5C4E"/>
<path id="Vector_5" d="M24.1029 63.4442C24.1029 63.4442 2.52097 58.4767 2.451 86.6715C2.451 86.6715 27.2408 88.3258 24.1029 63.4442Z" fill="white"/>
<path id="Vector_6" d="M50.5927 35.3063C50.5927 35.3063 24.0481 31.1179 25.318 62.0349C25.318 62.0349 48.3324 60.8666 50.5927 35.3063Z" fill="white"/>
<path id="Vector_7" d="M14.171 81.5059C17.1391 77.3199 16.8292 72.0015 13.4788 69.6269C10.1284 67.2523 5.00632 68.7207 2.03823 72.9067C-0.929858 77.0927 -0.619977 82.4112 2.73038 84.7858C6.08074 87.1604 11.2029 85.6919 14.171 81.5059Z" fill="#2E2328"/>
<path id="Vector_8" d="M36.9882 55.6685C39.9563 51.4825 39.6464 46.1641 36.296 43.7895C32.9457 41.4149 27.8236 42.8833 24.8555 47.0693C21.8874 51.2553 22.1973 56.5738 25.5476 58.9484C28.898 61.323 34.0201 59.8545 36.9882 55.6685Z" fill="#2E2328"/>
</g>
</svg>
