<svg width="34" height="35" viewBox="0 0 34 35" fill="none" xmlns="http://www.w3.org/2000/svg">
<g id="Group 2131327935">
<path id="Vector" d="M28.8157 34.5065L33.9969 31.4866L15.0701 23.1094L1.64388 7.65393L0 16.0935C0.616147 18.5946 1.72414 20.9479 3.25945 23.0162C4.79477 25.0845 6.72653 26.8264 8.94217 28.1402C16.4314 32.4957 28.8157 34.5065 28.8157 34.5065Z" fill="#FF3C3C"/>
<path id="Vector_2" d="M26.3384 0L1.65811 7.65435C1.65811 7.65435 1.51501 17.3048 8.62996 22.7869C15.7449 28.269 34 31.4871 34 31.4871L26.3384 0Z" fill="#F98B81"/>
<path id="Vector_3" d="M14.2292 3.7536C14.2292 3.7536 20.7901 2.50234 21.568 3.80498C22.3459 5.10761 20.7717 9.56225 20.1002 10.4099C20.1002 10.4099 22.6687 7.10743 23.8649 8.46144C25.0611 9.81544 25.4502 12.9785 25.4502 12.9785L28.8627 10.3402L31.2809 20.2475C30.029 20.8358 28.6766 21.1807 27.2958 21.2639C25.2373 21.3226 20.5148 18.2477 20.5148 18.2477C20.5148 18.2477 15.9208 18.0642 14.0971 16.9084C12.2734 15.7525 10.0423 10.2337 10.0423 10.2337L5.94366 6.32218L14.2292 3.7536Z" fill="#FF3C3C"/>
<path id="Vector_4" d="M16.3465 7.54402C16.3465 7.54402 14.8603 9.51449 13.9797 9.71997C13.099 9.92546 12.0166 9.41907 12.2478 8.79528C12.479 8.17148 12.7725 7.62841 13.2128 7.55502C13.6532 7.48163 16.3465 7.54402 16.3465 7.54402Z" fill="#FFF1DA"/>
<path id="Vector_5" d="M19.2855 10.6705C19.2855 10.6705 19.1057 12.4759 18.4672 13.2391C17.8287 14.0023 16.8858 14.8426 16.2217 14.2812C15.5575 13.7198 15.895 12.4685 16.372 12.0796C16.849 11.6906 19.2855 10.6705 19.2855 10.6705Z" fill="#FFF1DA"/>
<path id="Vector_6" d="M23.7694 12.2484C23.7694 12.2484 24.3822 15.5509 23.8391 15.8041C23.296 16.0572 22.3163 16.571 21.975 15.7564C21.6338 14.9417 21.7585 14.4464 22.0961 14.0721C22.4337 13.6978 23.7694 12.2484 23.7694 12.2484Z" fill="#FFF1DA"/>
<path id="Vector_7" d="M28.0957 14.5563C28.0957 14.5563 26.261 17.6166 27.2554 18.255C28.2498 18.8935 29.391 18.222 29.3947 17.6753C29.3983 17.1285 27.8792 15.1067 28.0957 14.5563Z" fill="#FFF1DA"/>
</g>
</svg>
