<svg width="27" height="21" viewBox="0 0 27 21" fill="none" xmlns="http://www.w3.org/2000/svg">
<g id="Group 2131327937">
<path id="Vector" d="M2.96617 17.0418C2.96617 17.0418 8.11012 22.5528 18.8897 19.2894C26.2256 17.0696 27 9.10168 27 9.10168V3.65958L24.8247 0L2.96617 17.0418Z" fill="#EF802D"/>
<path id="Vector_2" d="M24.8249 0.00220045L14.6373 3.16779L11.6708 5.24404L8.84803 4.84903L1.33708e-05 6.03628V13.1574C1.33708e-05 13.1574 2.37333 17.212 4.8457 18.4983C7.31807 19.7845 15.1324 20.0805 19.187 14.8387C23.2416 9.59683 24.3298 5.04709 24.3298 5.04709L24.8249 0.00220045Z" fill="#FBD3AA"/>
<path id="Vector_3" d="M22.9296 1.42406L22.6003 4.55181L21.7424 6.8595L13.8969 4.68421L22.9296 1.42406Z" fill="#F7B06B"/>
<path id="Vector_4" d="M13.8971 5.54111L17.194 13.519L20.1604 10.6839L21.6113 7.38705L13.8971 5.54111Z" fill="#F7B06B"/>
<path id="Vector_5" d="M12.4455 6.2664L12.7749 15.7609L15.413 14.508L16.5335 13.5189L12.4455 6.2664Z" fill="#F7B06B"/>
<path id="Vector_6" d="M10.797 6.53034L6.97269 16.4209H8.88537L11.8529 16.0248L10.797 6.53034Z" fill="#F7B06B"/>
<path id="Vector_7" d="M9.94015 6.53034L3.54443 13.5191L6.1815 16.4209L9.94015 6.53034Z" fill="#F7B06B"/>
<path id="Vector_8" d="M9.94015 5.2119L1.89546 6.53043L2.15918 10.1633L2.95142 12.9918L9.94015 5.2119Z" fill="#F7B06B"/>
</g>
</svg>
