<svg width="20" height="21" viewBox="0 0 20 21" fill="none" xmlns="http://www.w3.org/2000/svg">
<g id="Group 2131327936">
<path id="Vector" d="M2.90852 19.1306C6.98731 22.934 12.2322 20.0515 14.5098 18.2246C16.7873 16.3976 19.577 12.4054 19.9419 7.9622C20.3309 3.23258 18.7042 1.73454 16.9409 0.602532C15.1775 -0.52948 9.74226 -0.323664 4.88009 3.47659C0.0179268 7.27684 -2.18918 14.3766 2.90852 19.1306Z" fill="white"/>
<path id="Vector_2" d="M4.53585 8.17979C1.82168 10.793 3.05257 14.2844 5.53406 16.0486C7.50762 17.4562 11.1597 17.396 13.341 15.2325C15.5223 13.0691 15.5743 9.57673 13.368 7.74457C11.1618 5.91241 8.04567 4.80107 4.53585 8.17979Z" fill="#FFCD00"/>
</g>
</svg>
