<svg width="46" height="42" viewBox="0 0 46 42" fill="none" xmlns="http://www.w3.org/2000/svg">
<g id="Group 1948758011">
<path id="Vector" d="M16.4576 42C16.4576 42 7.85693 38.2851 7.45356 36.7415C7.05019 35.1979 -0.747417 4.25573 0.0583598 1.58713C0.864136 -1.08147 7.48905 0.4219 7.48905 0.4219C7.48905 0.4219 17.4706 41.2419 16.4576 42Z" fill="#FFCB00"/>
<path id="Vector_2" d="M6.77037 0.217903L45.7116 20.4916C45.7116 20.4916 39.627 29.5456 28.7009 35.8047C17.7748 42.0639 15.5947 41.6933 15.5947 41.6933L6.77037 0.217903Z" fill="#FFEB88"/>
<path id="Vector_3" d="M28.9436 17.2175C28.7033 18.0202 29.2008 18.9081 30.0547 19.2007C30.9086 19.4933 31.7955 19.0798 32.0358 18.2771C32.2761 17.4744 31.7786 16.5865 30.9247 16.2939C30.0708 16.0013 29.1838 16.4148 28.9436 17.2175Z" fill="#FFD13E"/>
<path id="Vector_4" d="M21.6964 28.6636C21.3342 29.8686 21.9129 31.1432 22.9888 31.5107C24.0647 31.8781 25.2305 31.1993 25.5926 29.9944C25.9548 28.7895 25.3762 27.5148 24.3003 27.1473C23.2244 26.7798 22.0585 27.4587 21.6964 28.6636Z" fill="#FFD13E"/>
<path id="Vector_5" d="M16.6519 17.0968C16.2897 18.3017 16.8683 19.5765 17.9443 19.9439C19.0202 20.3114 20.186 19.6325 20.5481 18.4276C20.9103 17.2226 20.3316 15.948 19.2557 15.5806C18.1798 15.2131 17.014 15.8919 16.6519 17.0968Z" fill="#FFD13E"/>
</g>
</svg>
