<svg width="16" height="14" viewBox="0 0 16 14" fill="none" xmlns="http://www.w3.org/2000/svg">
<g id="Group 2131327930">
<path id="Vector" d="M15.4787 5.72241C14.3839 5.06428 14.0873 4.27356 13.937 3.89337C13.7867 3.51318 12.7284 0.588965 9.22416 0.0945342C5.71989 -0.399897 2.3451 1.08593 1.35086 3.59368C0.356612 6.10144 1.11169 6.02406 0.46139 6.41701C-0.188915 6.80997 -0.0624721 7.10711 0.294126 7.44168C0.650725 7.77624 0.0229829 9.92417 3.15603 12.0642C6.28909 14.2043 10.8725 13.7781 12.4036 11.8767C13.9347 9.97537 14.6287 8.20459 14.8502 7.8129C15.0718 7.4212 15.9307 7.43829 15.988 6.86721C16.0453 6.29613 15.9006 5.97361 15.4787 5.72241Z" fill="#F2974C"/>
<path id="Vector_2" d="M14.8398 7.64775C14.1637 8.09068 12.5415 7.37991 11.0397 7.75493C9.53783 8.12996 7.6659 8.38589 6.75941 8.41522C5.85292 8.44455 5.40875 7.79285 4.32429 7.86315C3.23984 7.93344 2.77229 8.19165 2.77229 8.19165C2.77229 8.19165 5.07688 8.33523 6.58377 8.86423C8.09066 9.39323 9.78846 8.60199 10.1714 8.47015C10.5543 8.3383 12.782 7.57419 13.2122 8.47554C13.6423 9.3769 12.0581 11.9339 12.0581 11.9339C12.0581 11.9339 14.3736 9.88453 14.8398 7.64775Z" fill="#CB793D"/>
<path id="Vector_3" d="M4.01018 0.891597C2.62936 2.24253 1.92146 2.85359 1.87208 3.4605C1.8227 4.0674 1.4871 4.49236 1.63861 4.77735C1.79012 5.06234 2.13203 4.15654 2.32102 4.42512C2.51001 4.69371 2.13999 5.09857 2.31957 5.55109C2.49915 6.00362 7.06153 6.68043 7.73247 6.19449C8.40341 5.70855 9.41046 6.24372 8.48015 6.38053C7.54984 6.51734 2.22314 6.33756 1.6442 6.12352C1.06526 5.90947 0.862477 5.52904 0.864556 5.10657C0.866635 4.68411 1.42325 2.01716 4.01018 0.891597Z" fill="#CB793D"/>
<path id="Vector_4" d="M10.1543 0.301491C11.412 1.33313 13.2742 3.10407 12.2342 4.2868C11.1942 5.46954 8.79554 6.11377 8.43285 6.13674C8.07017 6.1597 9.59666 6.28179 10.0524 6.13535C10.5081 5.98891 10.7233 5.9132 10.7233 5.9132C10.7233 5.9132 12.1187 5.30313 13.2673 5.7454C13.9858 6.00369 14.7731 5.99587 15.4863 5.72338C15.4863 5.72338 14.7455 5.47418 13.9234 3.71128C12.966 1.10731 10.4527 0.294775 10.1543 0.301491Z" fill="#CB793D"/>
<path id="Vector_5" d="M12.8996 9.1543C12.2338 8.72697 12.3648 9.12693 11.7402 9.37587C11.1156 9.62481 10.5088 10.0017 10.2071 9.90807C9.90533 9.81446 8.90072 9.9951 8.96403 10.333C9.02735 10.6709 9.6532 10.8275 10.0193 10.6422C10.3854 10.457 10.708 10.167 11.0034 10.3616C11.0974 10.4162 11.2016 10.451 11.3095 10.4641C11.4174 10.4772 11.5269 10.4682 11.6313 10.4376C11.7356 10.4071 11.8327 10.3557 11.9166 10.2865C12.0005 10.2174 12.0694 10.1319 12.1192 10.0352C12.3476 9.5584 12.1617 9.70645 12.6479 9.68003C13.1341 9.65362 13.0722 9.26572 12.8996 9.1543Z" fill="#CB793D"/>
<path id="Vector_6" d="M7.04384 10.5097C6.56129 10.5839 6.03888 10.4582 5.85251 10.2338C5.66615 10.0093 5.37887 10.1106 4.96209 10.1882C4.54532 10.2658 4.41256 10.2822 4.09037 10.1106C3.76817 9.939 3.57981 9.7535 3.2733 9.91978C2.96679 10.0861 3.00102 10.4677 3.65166 10.617C4.30231 10.7663 4.37627 10.3231 4.64041 10.6505C4.90456 10.9779 4.99852 11.0987 5.41529 11.0211C5.83207 10.9435 5.60169 10.6008 6.07158 10.7738C6.54148 10.9468 7.02444 10.8885 7.05618 10.6263C7.08791 10.3641 7.04384 10.5097 7.04384 10.5097Z" fill="#CB793D"/>
<path id="Vector_7" d="M11.0633 11.5084C10.3749 11.0933 10.0973 11.029 9.88186 11.349C9.66641 11.6689 9.51902 11.6614 9.01671 11.549C8.5144 11.4366 8.24958 11.3607 8.02335 11.5812C7.79711 11.8017 7.85369 11.9853 7.65211 12.058C7.45054 12.1308 8.31195 12.7196 8.83877 12.4485C9.36559 12.1775 9.2486 12.1727 9.87054 12.2864C10.4925 12.4 10.4572 12.1344 10.9414 12.0273C11.4257 11.9202 11.0633 11.5084 11.0633 11.5084Z" fill="#CB793D"/>
<path id="Vector_8" d="M4.54474 1.9861C3.92501 1.71012 3.81366 2.09648 3.42998 2.67284C3.04631 3.2492 2.80471 3.62644 3.05214 3.87481C3.29957 4.12319 3.30616 4.37633 3.59362 4.20051C3.88107 4.0247 3.21572 3.2322 3.59105 3.17691C3.96638 3.12162 4.41858 2.99578 4.24929 2.65248C4.08 2.30918 3.93642 2.22733 4.24811 2.31778C4.5598 2.40823 4.78119 2.09102 4.54474 1.9861Z" fill="#CB793D"/>
</g>
</svg>
