<svg width="58" height="34" viewBox="0 0 58 34" fill="none" xmlns="http://www.w3.org/2000/svg">
<g id="Group 2131327927">
<path id="Vector" d="M13.2626 7.39007C13.2626 7.39007 27.1673 -0.15717 40.8151 0.00246349C54.463 0.162098 57.1297 0.809986 57.1297 0.809986L56.2366 1.64333C56.2366 1.64333 58.1362 1.05609 57.9922 3.3823C57.8482 5.7085 51.1667 20.4596 36.2366 25.9897C21.3064 31.5199 10.9105 33.7097 10.9105 33.7097L-4.13652e-06 13.8069L13.2626 7.39007Z" fill="#D6D6D6"/>
<path id="Vector_2" d="M1.06395 5.27026C1.06395 5.27026 15.5221 4.19657 19.5701 7.02244C19.5701 7.02244 14.9633 8.72204 13.1823 12.0358L0.661742 10.8863C0.661742 10.8863 2.64787 8.59617 1.06395 5.27026Z" fill="#C6C6C6"/>
<path id="Vector_3" d="M26.7228 23.5123C26.7228 23.5123 33.0497 23.2631 37.7326 19.6743C42.4156 16.0856 46.0646 15.1014 44.5278 17.4648C42.991 19.8282 34.6285 25.2977 34.6285 25.2977C34.6285 25.2977 30.6563 27.4991 26.7228 23.5123Z" fill="#C6C6C6"/>
<path id="Vector_4" d="M46.0839 3.06602C46.8726 3.24413 47.6202 2.90901 47.7538 2.31749C47.8874 1.72598 47.3563 1.10207 46.5676 0.923957C45.7789 0.745842 45.0313 1.08097 44.8977 1.67248C44.7641 2.264 45.2952 2.8879 46.0839 3.06602Z" fill="#2E2328"/>
<path id="Vector_5" d="M37.5237 3.74698C37.5237 3.74698 38.3737 11.9938 46.1996 14.6378L37.5237 3.74698Z" fill="#C6C6C6"/>
<path id="Vector_6" d="M31.2798 3.33043C31.2798 3.33043 27.282 3.68681 30.7606 5.62961L31.2798 3.33043Z" fill="#C6C6C6"/>
<path id="Vector_7" d="M31.1284 6.76918C31.1284 6.76918 27.5792 7.02954 32.1839 9.38371L31.1284 6.76918Z" fill="#C6C6C6"/>
<path id="Vector_8" d="M33.2414 10.2603C33.2414 10.2603 29.8876 11.8253 34.5527 13.4602L33.2414 10.2603Z" fill="#C6C6C6"/>
<path id="Vector_9" d="M35.77 14.9647C35.77 14.9647 34.4885 17.316 37.0778 17.8108L35.77 14.9647Z" fill="#C6C6C6"/>
</g>
</svg>
