<svg width="128" height="88" viewBox="0 0 128 88" fill="none" xmlns="http://www.w3.org/2000/svg">
<g id="Group 1948755611">
<path id="Vector" d="M120.75 0L128 73.095L8.74877 87.6318L2.15839e-06 15.8617L120.75 0Z" fill="#FFD9ED"/>
<g id="Vector_2">
<path d="M123.431 68.5004L64.2013 38.8739L14.7675 81.7465" fill="#FFD9ED"/>
<path d="M123.431 68.5004L64.2013 38.8739L14.7675 81.7465" stroke="#FBA3BA" stroke-width="1.43039" stroke-miterlimit="10"/>
</g>
<g id="Vector_3">
<path d="M118.571 7.10813L65.3945 54.1793L3.7926 21.0996" fill="#FFD9ED"/>
<path d="M118.571 7.10813L65.3945 54.1793L3.7926 21.0996" stroke="#FBA3BA" stroke-width="1.43039" stroke-miterlimit="10"/>
</g>
<path id="Vector_4" d="M64.2678 39.2489C64.2678 39.2489 70.8029 26.3599 77.4559 29.9379C84.1081 33.5167 79.5385 55.404 64.2679 62.7581C64.2679 62.7581 50.025 56.2168 48.6157 38.1087C47.4662 23.3581 63.2939 29.0511 64.2678 39.2489Z" fill="#D7144B"/>
</g>
</svg>
