<svg width="46" height="31" viewBox="0 0 46 31" fill="none" xmlns="http://www.w3.org/2000/svg">
<path id="Vector" d="M41.5155 26.4576C41.4476 26.3217 41.3796 26.1858 41.2437 26.1179L41.3117 25.7781L32.9542 15.4502C32.9542 15.4502 13.6573 18.6437 5.16396 20.9539C4.89218 21.0219 2.92171 27.4089 2.64992 27.4768C1.69867 27.6127 1.08715 27.6806 0.883311 27.7486L0 15.79C0 15.79 3.80502 9.19912 10.5318 4.37489C10.5318 4.37489 23.3737 -4.59409 35.808 3.15185C35.808 3.15185 39.4771 6.00562 39.8848 8.92733L45.1846 11.7811L46 30.5344L44.5052 30.7383C44.1654 30.4665 43.8257 30.1947 43.486 29.855C42.5347 28.9037 41.8552 27.7486 41.5155 26.4576Z" fill="#A57867"/>
</svg>
